<?xml version="1.0" encoding="UTF-8" standalone="no"?><!DOCTYPE svg PUBLIC "-//W3C//DTD SVG 1.1//EN" "http://www.w3.org/Graphics/SVG/1.1/DTD/svg11.dtd"><!-- Generated by graphviz version 2.40.1 (20161225.0304)
 --><!-- Title: G Pages: 1 --><svg xmlns="http://www.w3.org/2000/svg" xmlns:xlink="http://www.w3.org/1999/xlink" width="667pt" height="564pt" viewBox="0.00 0.00 666.70 564.00">
<g id="graph0" class="graph" transform="scale(1 1) rotate(0) translate(4 560)">
<title>G</title>
<polygon fill="#ffffff" stroke="transparent" points="-4,4 -4,-560 662.6984,-560 662.6984,4 -4,4"/>
<g id="clust1" class="cluster">
<title>cluster_breeze</title>
<polygon fill="none" stroke="#add8e6" points="211.6088,-201 211.6088,-548 650.6984,-548 650.6984,-201 211.6088,-201"/>
<text text-anchor="middle" x="431.1536" y="-531.4" font-family="Arial" font-size="14.00" fill="#000000">WP-Breeze</text>
</g>
<g id="clust2" class="cluster">
<title>cluster_page</title>
<polygon fill="none" stroke="#c0c0c0" points="8,-8 8,-193 432.6599,-193 432.6599,-8 8,-8"/>
<text text-anchor="middle" x="220.3299" y="-176.4" font-family="Arial" font-size="14.00" fill="#000000">Consumer</text>
</g>
<!-- more -->
<g id="node1" class="node">
<title>more</title>
<ellipse fill="#add8e6" stroke="#add8e6" cx="552.0008" cy="-335" rx="63.1267" ry="18"/>
<text text-anchor="middle" x="552.0008" y="-330.8" font-family="Times,serif" font-size="14.00" fill="#000000">Much more...</text>
</g>
<!-- mountX -->
<g id="node2" class="node">
<title>mountX</title>
<ellipse fill="#add8e6" stroke="#add8e6" cx="552.0008" cy="-281" rx="60.578" ry="18"/>
<text text-anchor="middle" x="552.0008" y="-276.8" font-family="Times,serif" font-size="14.00" fill="#000000">/var/mnt/{x}</text>
</g>
<!-- wordpress -->
<g id="node3" class="node">
<title>wordpress</title>
<ellipse fill="#add8e6" stroke="#add8e6" cx="552.0008" cy="-389" rx="52.7295" ry="18"/>
<text text-anchor="middle" x="552.0008" y="-384.8" font-family="Times,serif" font-size="14.00" fill="#000000">Wordpress</text>
</g>
<!-- database -->
<g id="node4" class="node">
<title>database</title>
<ellipse fill="#add8e6" stroke="#add8e6" cx="552.0008" cy="-443" rx="79.8507" ry="18"/>
<text text-anchor="middle" x="552.0008" y="-438.8" font-family="Times,serif" font-size="14.00" fill="#000000">Database-Actions</text>
</g>
<!-- templating -->
<g id="node5" class="node">
<title>templating</title>
<ellipse fill="#add8e6" stroke="#add8e6" cx="552.0008" cy="-497" rx="55.6159" ry="18"/>
<text text-anchor="middle" x="552.0008" y="-492.8" font-family="Times,serif" font-size="14.00" fill="#000000">Templating</text>
</g>
<!-- env_vars -->
<g id="node6" class="node">
<title>env_vars</title>
<ellipse fill="#add8e6" stroke="#add8e6" cx="552.0008" cy="-227" rx="90.8957" ry="18"/>
<text text-anchor="middle" x="552.0008" y="-222.8" font-family="Times,serif" font-size="14.00" fill="#000000">Environment Config</text>
</g>
<!-- wp_breeze -->
<g id="node7" class="node">
<title>wp_breeze</title>
<polygon fill="#add8e6" stroke="#add8e6" points="425.1506,-380 219.7614,-380 219.7614,-344 425.1506,-344 425.1506,-380"/>
<text text-anchor="middle" x="322.456" y="-357.8" font-family="Times,serif" font-size="14.00" fill="#000000">dorfjungs/wordpress-breeze:latest</text>
</g>
<!-- wp_breeze&#45;&gt;more -->
<g id="edge6" class="edge">
<title>wp_breeze-&gt;more</title>
<path fill="none" stroke="#000000" d="M425.4781,-349.8821C445.1883,-347.5637 465.3656,-345.1904 483.6519,-343.0395"/>
<polygon fill="#000000" stroke="#000000" points="484.0789,-346.5135 493.6015,-341.8692 483.2611,-339.5614 484.0789,-346.5135"/>
</g>
<!-- wp_breeze&#45;&gt;mountX -->
<g id="edge1" class="edge">
<title>wp_breeze-&gt;mountX</title>
<path fill="none" stroke="#000000" d="M366.2033,-343.9301C393.372,-332.9722 429.1282,-319.0253 461.3032,-308 472.9596,-304.0057 485.5707,-300.0344 497.5767,-296.4155"/>
<polygon fill="#000000" stroke="#000000" points="498.8995,-299.6735 507.4851,-293.4656 496.9021,-292.9645 498.8995,-299.6735"/>
</g>
<!-- wp_breeze&#45;&gt;wordpress -->
<g id="edge2" class="edge">
<title>wp_breeze-&gt;wordpress</title>
<path fill="none" stroke="#000000" d="M425.4781,-374.1179C448.2149,-376.7923 471.5733,-379.5398 491.9336,-381.9347"/>
<polygon fill="#000000" stroke="#000000" points="491.6386,-385.424 501.979,-383.1162 492.4564,-378.4719 491.6386,-385.424"/>
</g>
<!-- wp_breeze&#45;&gt;database -->
<g id="edge3" class="edge">
<title>wp_breeze-&gt;database</title>
<path fill="none" stroke="#000000" d="M366.2033,-380.0699C393.372,-391.0278 429.1282,-404.9747 461.3032,-416 471.1966,-419.3901 481.7777,-422.7637 492.0928,-425.9194"/>
<polygon fill="#000000" stroke="#000000" points="491.2851,-429.3315 501.87,-428.8716 493.3086,-422.6303 491.2851,-429.3315"/>
</g>
<!-- wp_breeze&#45;&gt;templating -->
<g id="edge4" class="edge">
<title>wp_breeze-&gt;templating</title>
<path fill="none" stroke="#000000" d="M341.0882,-380.2507C366.3475,-404.0583 413.7815,-445.5484 461.3032,-470 472.1456,-475.5788 484.3244,-480.1922 496.1536,-483.9311"/>
<polygon fill="#000000" stroke="#000000" points="495.3871,-487.355 505.9708,-486.8681 497.3935,-480.6487 495.3871,-487.355"/>
</g>
<!-- wp_breeze&#45;&gt;env_vars -->
<g id="edge5" class="edge">
<title>wp_breeze-&gt;env_vars</title>
<path fill="none" stroke="#000000" d="M341.0882,-343.7493C366.3475,-319.9417 413.7815,-278.4516 461.3032,-254 468.4694,-250.3127 476.2195,-247.0472 484.0666,-244.1771"/>
<polygon fill="#000000" stroke="#000000" points="485.3413,-247.4399 493.6537,-240.8706 483.0589,-240.8224 485.3413,-247.4399"/>
</g>
<!-- wp_page -->
<g id="node8" class="node">
<title>wp_page</title>
<polygon fill="none" stroke="#c0c0c0" points="183.4137,-106 16.1951,-106 16.1951,-70 183.4137,-70 183.4137,-106"/>
<text text-anchor="middle" x="99.8044" y="-83.8" font-family="Times,serif" font-size="14.00" fill="#000000">your/wordpress-page:latest</text>
</g>
<!-- source, assets, ... -->
<g id="node9" class="node">
<title>source, assets, ...</title>
<ellipse fill="none" stroke="#c0c0c0" cx="322.456" cy="-142" rx="75.8219" ry="18"/>
<text text-anchor="middle" x="322.456" y="-137.8" font-family="Times,serif" font-size="14.00" fill="#000000">source, assets, ...</text>
</g>
<!-- wp_page&#45;&gt;source, assets, ... -->
<g id="edge7" class="edge">
<title>wp_page-&gt;source, assets, ...</title>
<path fill="none" stroke="#000000" d="M174.2537,-106.0563C201.8298,-112.7444 232.8091,-120.2578 259.2865,-126.6794"/>
<polygon fill="#000000" stroke="#000000" points="258.654,-130.1274 269.1973,-129.0831 260.304,-123.3246 258.654,-130.1274"/>
</g>
<!-- Enable Patternlab, ... -->
<g id="node10" class="node">
<title>Enable Patternlab, ...</title>
<ellipse fill="none" stroke="#c0c0c0" cx="322.456" cy="-34" rx="91.4732" ry="18"/>
<text text-anchor="middle" x="322.456" y="-29.8" font-family="Times,serif" font-size="14.00" fill="#000000">Enable Patternlab, ...</text>
</g>
<!-- wp_page&#45;&gt;Enable Patternlab, ... -->
<g id="edge9" class="edge">
<title>wp_page-&gt;Enable Patternlab, ...</title>
<path fill="none" stroke="#000000" d="M174.2537,-69.9437C200.2575,-63.637 229.2874,-56.5963 254.715,-50.4293"/>
<polygon fill="#000000" stroke="#000000" points="255.7417,-53.7818 264.635,-48.0234 254.0918,-46.9791 255.7417,-53.7818"/>
</g>
<!-- Database Host, User, ... -->
<g id="node11" class="node">
<title>Database Host, User, ...</title>
<ellipse fill="none" stroke="#c0c0c0" cx="322.456" cy="-88" rx="102.4081" ry="18"/>
<text text-anchor="middle" x="322.456" y="-83.8" font-family="Times,serif" font-size="14.00" fill="#000000">Database Host, User, ...</text>
</g>
<!-- wp_page&#45;&gt;Database Host, User, ... -->
<g id="edge11" class="edge">
<title>wp_page-&gt;Database Host, User, ...</title>
<path fill="none" stroke="#000000" d="M183.6622,-88C192.1679,-88 200.9018,-88 209.6479,-88"/>
<polygon fill="#000000" stroke="#000000" points="209.9078,-91.5001 219.9078,-88 209.9077,-84.5001 209.9078,-91.5001"/>
</g>
<!-- source, assets, ...&#45;&gt;mountX -->
<g id="edge8" class="edge">
<title>source, assets, ...-&gt;mountX</title>
<path fill="none" stroke="#000000" d="M367.0613,-156.6223C388.9292,-165.5534 414.4151,-178.8054 432.6599,-197 452.7354,-217.0204 439.568,-235.795 461.3032,-254 469.2251,-260.6352 478.7294,-265.6399 488.5603,-269.4146"/>
<polygon fill="#000000" stroke="#000000" points="487.4502,-272.734 498.0448,-272.6699 489.7226,-266.1131 487.4502,-272.734"/>
</g>
<!-- Enable Patternlab, ...&#45;&gt;env_vars -->
<g id="edge10" class="edge">
<title>Enable Patternlab, ...-&gt;env_vars</title>
<path fill="none" stroke="#000000" d="M396.9443,-44.6079C409.5308,-48.4872 421.9666,-53.7801 432.6599,-61 484.912,-96.2798 522.1082,-162.5197 539.9858,-199.7711"/>
<polygon fill="#000000" stroke="#000000" points="536.905,-201.4456 544.3126,-209.0204 543.2455,-198.4794 536.905,-201.4456"/>
</g>
<!-- Database Host, User, ...&#45;&gt;env_vars -->
<g id="edge12" class="edge">
<title>Database Host, User, ...-&gt;env_vars</title>
<path fill="none" stroke="#000000" d="M396.4489,-100.5528C408.9549,-104.2234 421.4913,-108.9424 432.6599,-115 472.7769,-136.7586 509.5321,-175.3022 531.3521,-201.0035"/>
<polygon fill="#000000" stroke="#000000" points="528.8071,-203.4166 537.8971,-208.8592 534.1851,-198.9359 528.8071,-203.4166"/>
</g>
</g>
</svg>